<?xml version="1.0" standalone="no"?>
<svg xmlns:xlink="http://www.w3.org/1999/xlink" id="wave" style="transform:rotate(0deg); transition: 0.3s" viewBox="0 0 1440 100" version="1.1" xmlns="http://www.w3.org/2000/svg"><defs><linearGradient id="sw-gradient-0" x1="0" x2="0" y1="1" y2="0"><stop stop-color="rgba(0, 148, 131, 1)" offset="0%"/><stop stop-color="rgba(0, 148, 131, 1)" offset="100%"/></linearGradient></defs><path style="transform:translate(0, 0px); opacity:1" fill="url(#sw-gradient-0)" d="M0,20L1440,80L2880,0L4320,40L5760,40L7200,60L8640,40L10080,80L11520,30L12960,40L14400,0L15840,80L17280,50L18720,0L20160,20L21600,50L23040,50L24480,30L25920,60L27360,30L28800,70L30240,20L31680,50L33120,30L34560,60L34560,100L33120,100L31680,100L30240,100L28800,100L27360,100L25920,100L24480,100L23040,100L21600,100L20160,100L18720,100L17280,100L15840,100L14400,100L12960,100L11520,100L10080,100L8640,100L7200,100L5760,100L4320,100L2880,100L1440,100L0,100Z"/></svg>