<?xml version="1.0" standalone="no"?>
<svg xmlns:xlink="http://www.w3.org/1999/xlink" id="wave" style="transform:rotate(180deg); transition: 0.3s" viewBox="0 0 1440 100" version="1.1" xmlns="http://www.w3.org/2000/svg"><defs><linearGradient id="sw-gradient-0" x1="0" x2="0" y1="1" y2="0"><stop stop-color="rgba(0, 148, 131, 1)" offset="0%"/><stop stop-color="rgba(0, 148, 131, 1)" offset="100%"/></linearGradient></defs><path style="transform:translate(0, 0px); opacity:1" fill="url(#sw-gradient-0)" d="M0,70L1440,10L2880,90L4320,70L5760,10L7200,60L8640,80L10080,20L11520,0L12960,80L14400,20L15840,80L17280,10L18720,10L20160,0L21600,80L23040,60L24480,40L25920,60L27360,70L28800,30L30240,50L31680,0L33120,50L34560,50L34560,100L33120,100L31680,100L30240,100L28800,100L27360,100L25920,100L24480,100L23040,100L21600,100L20160,100L18720,100L17280,100L15840,100L14400,100L12960,100L11520,100L10080,100L8640,100L7200,100L5760,100L4320,100L2880,100L1440,100L0,100Z"/></svg>