<?xml version="1.0" standalone="no"?>
<svg xmlns:xlink="http://www.w3.org/1999/xlink" id="wave" style="transform:rotate(0deg); transition: 0.3s" viewBox="0 0 1440 100" version="1.1" xmlns="http://www.w3.org/2000/svg"><defs><linearGradient id="sw-gradient-0" x1="0" x2="0" y1="1" y2="0"><stop stop-color="rgba(245, 245, 245, 1)" offset="0%"/><stop stop-color="rgba(245, 245, 245, 1)" offset="100%"/></linearGradient></defs><path style="transform:translate(0, 0px); opacity:1" fill="url(#sw-gradient-0)" d="M0,80L1440,30L2880,10L4320,90L5760,30L7200,40L8640,80L10080,20L11520,10L12960,30L14400,70L15840,80L17280,20L18720,20L20160,10L21600,70L23040,80L24480,40L25920,0L27360,40L28800,90L30240,50L31680,30L33120,20L34560,30L34560,100L33120,100L31680,100L30240,100L28800,100L27360,100L25920,100L24480,100L23040,100L21600,100L20160,100L18720,100L17280,100L15840,100L14400,100L12960,100L11520,100L10080,100L8640,100L7200,100L5760,100L4320,100L2880,100L1440,100L0,100Z"/></svg>